<svg width="27" height="37" viewBox="0 0 27 37" fill="none" xmlns="http://www.w3.org/2000/svg">
<path d="M11.7684 11.1113C12.5382 9.77799 14.4627 9.77799 15.2325 11.1113L21.7277 22.3613C22.4975 23.6947 21.5353 25.3613 19.9957 25.3613H7.0053C5.4657 25.3613 4.50345 23.6947 5.27325 22.3613L11.7684 11.1113Z" stroke="#FF0000" stroke-width="2"/>
<path d="M14.6083 14.3841L14.4421 20.4949H12.8825L12.712 14.3841H14.6083ZM13.6623 23.2221C13.381 23.2221 13.1396 23.1227 12.9379 22.9238C12.7362 22.7221 12.6367 22.4806 12.6396 22.1994C12.6367 21.921 12.7362 21.6824 12.9379 21.4835C13.1396 21.2846 13.381 21.1852 13.6623 21.1852C13.9322 21.1852 14.1694 21.2846 14.3739 21.4835C14.5785 21.6824 14.6822 21.921 14.685 22.1994C14.6822 22.3869 14.6325 22.5588 14.5359 22.715C14.4421 22.8684 14.3185 22.992 14.1651 23.0858C14.0117 23.1767 13.8441 23.2221 13.6623 23.2221Z" fill="#FF0000"/>
</svg>
